<svg id="Layer_1" data-name="Layer 1" xmlns="http://www.w3.org/2000/svg" viewBox="0 0 48.5 48.5"><defs><style>.cls-1{fill:none;stroke:#345c72;stroke-linecap:round;stroke-miterlimit:10;stroke-width:2px;}</style></defs><title>icon-flask</title><g id="Layer_2" data-name="Layer 2"><g id="icons"><path class="cls-1" d="M42.4,44.13,29.81,22.44V8H30a3.2,3.2,0,0,0,3.18-3.19V4.18A3.2,3.2,0,0,0,30,1H19.8a3.2,3.2,0,0,0-3.18,3.18v.66A3.2,3.2,0,0,0,19.8,8H20V22.4l-3.55,6.12-9,15.58C6.48,45.71,7.22,47,9,47H40.7C42.57,47,43.31,45.71,42.4,44.13Z"/><line class="cls-1" x1="33.22" y1="28.31" x2="16.43" y2="28.31"/></g></g></svg>