<svg id="Layer_1" data-name="Layer 1" xmlns="http://www.w3.org/2000/svg" viewBox="0 0 48.5 48.5"><defs><style>.cls-1{fill:none;stroke:#345c72;stroke-linecap:round;stroke-linejoin:round;stroke-width:2px;}</style></defs><title>icon-walk</title><g id="Layer_2" data-name="Layer 2"><g id="Icons"><circle class="cls-1" cx="24.02" cy="6" r="5"/><rect class="cls-1" x="12.7" y="14.77" width="6.13" height="11.32"/><path class="cls-1" d="M39.21,24.2,32.7,21l-3.4-4.84a5,5,0,0,0-10,1v7.51l6-3.4.5.88-6.5,3.64h0A5.5,5.5,0,0,0,19.46,27L12.88,44a2.55,2.55,0,0,0,1.45,3.29h0a2.67,2.67,0,0,0,.92.17,2.51,2.51,0,0,0,2.36-1.62l5.83-15.07a4.2,4.2,0,0,0,2.14-.08l4.83,6L31,45.14a2.53,2.53,0,0,0,2.52,2.36h.16a2.54,2.54,0,0,0,2.36-2.7h0l-.66-9.24a2.46,2.46,0,0,0-.56-1.42l-5.66-7a4.91,4.91,0,0,0,.21-1.31v-.94a2,2,0,0,0,.51.34l7,3.51A2.43,2.43,0,0,0,38,29a2.54,2.54,0,0,0,1.14-4.81Z"/></g></g></svg>