<svg id="Layer_1" data-name="Layer 1" xmlns="http://www.w3.org/2000/svg" viewBox="0 0 48.5 48.5"><defs><style>.cls-1,.cls-2,.cls-3{fill:none;stroke:#345c72;stroke-width:2px;}.cls-1{stroke-miterlimit:10;}.cls-2,.cls-3{stroke-linejoin:round;}.cls-3{stroke-linecap:round;}</style></defs><title>icon-write</title><g id="Layer_2" data-name="Layer 2"><g id="Icons"><path class="cls-1" d="M46,35.13l-1.6-1.28-3.38,4,1.59,1.28c1.48,1.19,3.45,1.26,4.38.15S47.5,36.32,46,35.13Z"/><path class="cls-2" d="M43.67,33.24,27.06,19.9s-5.14-2.3-6.33-1.9c-.07.66,3,5.9,3,5.9L40.28,37.25l1.52-1.8h0Z"/><polyline class="cls-2" points="37.32 34.87 37.32 38.89 1 47.5 1 1 37.32 1 37.32 28.14"/><polyline class="cls-2" points="1.88 46.25 22.65 30.85 37.32 38.89"/><line class="cls-3" x1="7.76" y1="7.19" x2="28.92" y2="7.19"/><line class="cls-3" x1="7.76" y1="13.94" x2="28.92" y2="13.94"/><line class="cls-3" x1="7.76" y1="20.74" x2="21.46" y2="20.74"/><line class="cls-3" x1="7.76" y1="27.54" x2="25.77" y2="27.54"/></g></g></svg>